PathFileType	4	(X/Y/Z)	C:/Users/opensim2020/Desktop/walking_exp_matlab/subject02_walking11_straight_01.trc	
DataRate	CameraRate	NumFrames	NumMarkers	Units	OrigDataRate	OrigDataStartFrame	OrigNumFrames	
100.00	100.00	7	42	mm	100.00	967	267	
Frame#	Time	LFHD			RFHD			LBHD			RBHD			C7			T10			CLAV			STRN			RBAK			LSHO			LUPA			LELB			LFRM			LWRA			LWRB			LFIN			RSHO			RUPA			RELB			RFRM			RWRA			RWRB			RFIN			LASI			RASI			LPSI			RPSI			LTHI			LKNE			LTIB			LANK			LHEE			LTOE			RTHI			RKNE			RTIB			RANK			RHEE			RTOE			*39			*40			*41			
		X1	Y1	Z1	X2	Y2	Z2	X3	Y3	Z3	X4	Y4	Z4	X5	Y5	Z5	X6	Y6	Z6	X7	Y7	Z7	X8	Y8	Z8	X9	Y9	Z9	X10	Y10	Z10	X11	Y11	Z11	X12	Y12	Z12	X13	Y13	Z13	X14	Y14	Z14	X15	Y15	Z15	X16	Y16	Z16	X17	Y17	Z17	X18	Y18	Z18	X19	Y19	Z19	X20	Y20	Z20	X21	Y21	Z21	X22	Y22	Z22	X23	Y23	Z23	X24	Y24	Z24	X25	Y25	Z25	X26	Y26	Z26	X27	Y27	Z27	X28	Y28	Z28	X29	Y29	Z29	X30	Y30	Z30	X31	Y31	Z31	X32	Y32	Z32	X33	Y33	Z33	X34	Y34	Z34	X35	Y35	Z35	X36	Y36	Z36	X37	Y37	Z37	X38	Y38	Z38	X39	Y39	Z39	X40	Y40	Z40	X41	Y41	Z41	X42	Y42	Z42	

234	2.330	1343.76453	597.39435	1750.91162	1485.85803	612.31696	1731.93347	1339.62256	499.34283	1636.91125	1480.96851	502.48129	1612.16675	1397.13904	478.27127	1514.76819	1395.43408	423.58316	1241.76367	1392.70007	618.31146	1447.55322	1398.32959	666.85492	1272.43408	1451.15332	417.11072	1342.58838	1222.16455	568.21271	1496.93445	1128.52197	614.28107	1308.46167	1108.13196	668.88232	1176.91003	1111.56506	752.29126	1071.58032	1168.29163	857.14789	1001.09418	1127.26282	828.02863	976.17688	1131.92981	882.29633	939.72467	1586.89417	547.59338	1473.66333	1663.20557	505.99390	1282.43103	1682.50342	515.31897	1136.81519	1706.17126	545.33270	1020.93182	1692.57788	599.57117	895.97559	1719.97620	549.88654	891.13232	1726.82776	588.80615	829.91290	1263.98120	652.87018	976.80164	1521.36389	660.96869	973.19006	1351.17627	445.87006	1021.16803	1465.20947	442.70016	1019.88531	1230.11218	552.35565	667.65405	1266.71265	491.32977	472.51758	1273.52649	402.96701	297.61749	1317.40796	370.55502	77.06509	1369.99402	332.64249	52.22725	1298.81982	523.90631	34.19524	1612.57007	643.33405	677.00769	1588.02673	718.98474	481.95901	1613.97424	741.40100	299.16669	1600.46094	793.11951	109.10492	1550.00647	781.50153	41.45705	1612.11694	954.64063	101.15263	1440.63928	484.78906	1776.68176	-3360.30859	2845.25586	1033.96912			 
235	2.340	1345.51563	605.36230	1750.06091	1487.66235	620.33319	1730.96448	1341.13586	507.28036	1636.04639	1482.62842	510.37305	1611.23303	1398.61340	486.09628	1513.91431	1396.93530	431.37787	1240.70422	1394.01245	626.22351	1446.69995	1399.20337	674.80072	1271.57214	1452.42200	425.03894	1341.68726	1223.50146	576.07794	1496.29944	1130.20227	622.01538	1307.53308	1109.86523	675.90717	1175.78931	1113.09924	758.77655	1070.07544	1169.86829	864.03693	1000.00513	1128.97192	834.68536	974.93427	1133.68286	888.98230	938.57635	1588.45862	555.39313	1472.56055	1664.11414	513.44037	1281.04431	1683.58179	522.46124	1135.62366	1707.49011	552.14532	1019.75879	1693.89331	605.82727	894.54736	1721.18848	556.08887	889.89948	1728.06653	594.72150	828.45557	1264.37085	659.82117	975.74255	1521.67285	669.63641	972.31262	1353.03223	452.98764	1020.08624	1467.28723	450.95245	1019.17993	1230.79797	557.55115	667.04944	1267.30249	495.60690	472.32825	1273.94458	405.47095	298.26877	1317.40247	370.95700	77.94993	1370.21375	332.89392	53.58638	1298.69165	523.47229	34.25304	1613.08325	650.87659	675.74768	1587.71643	726.67017	480.77802	1614.25806	752.34485	298.76517	1601.07666	807.35437	109.59620	1550.44922	795.97760	42.52160	1610.27808	969.15656	103.23231	1442.24854	492.75888	1775.72107	-3357.20361	2845.87524	1034.27649			 
236	2.350	1347.49255	613.49969	1749.33740	1489.57788	628.37646	1729.98645	1343.10132	515.30322	1635.44775	1484.10742	518.14020	1610.35803	1400.17163	494.08170	1513.02075	1398.85938	439.50052	1239.99390	1395.45630	634.22803	1445.85266	1400.17432	682.82654	1270.70410	1453.86987	432.97928	1340.47852	1224.96741	583.92114	1495.68164	1131.77271	629.22345	1306.57971	1111.49829	682.60352	1174.64551	1114.86621	765.35706	1068.91248	1171.60571	870.31848	998.51251	1130.78076	840.95496	973.36279	1135.31506	895.16290	936.92145	1589.83789	563.29352	1471.24609	1665.20081	521.01709	1279.78748	1684.89551	529.86841	1134.54822	1708.75732	558.92706	1018.52277	1695.35046	612.30902	893.10114	1722.43750	562.48694	888.61188	1729.32471	600.80670	827.03711	1264.92725	666.81879	974.74408	1522.07959	678.43359	971.41772	1355.29358	460.72971	1019.24756	1469.49707	459.28345	1018.41254	1231.55615	562.93628	666.51575	1267.93274	500.04544	472.17786	1274.44690	408.11713	299.06436	1317.38025	371.40689	78.91357	1370.21045	332.98102	54.96395	1298.35339	523.32031	34.21063	1613.97351	659.33905	675.00623	1588.16455	735.05969	480.06744	1614.62817	762.52411	298.31107	1601.18225	819.63855	109.55525	1551.35986	808.15210	41.51235	1608.63940	981.52216	103.99325	1444.42834	500.95828	1774.95239	-3357.33594	2845.87573	1034.28845			 
237	2.360	1349.52820	621.56720	1748.50232	1491.61267	636.44720	1728.97705	1344.99207	523.28998	1634.71362	1486.00879	526.14191	1609.38342	1402.08850	502.19019	1512.33752	1400.82764	447.57755	1239.10266	1396.90527	642.28461	1444.98230	1401.25879	690.90704	1269.85913	1455.52808	441.00867	1339.56665	1226.44031	591.76581	1495.09021	1133.39490	636.25952	1305.60120	1113.29529	688.95490	1173.30554	1116.59485	771.10040	1066.98267	1173.18909	876.24786	996.60181	1132.60315	846.68982	971.47662	1137.01050	900.69659	934.82391	1591.18774	571.19049	1469.91675	1666.34351	528.70264	1278.57703	1686.14355	537.24432	1133.36072	1709.95642	565.87732	1017.24561	1696.74548	618.90417	891.68054	1723.72888	569.03625	887.40424	1730.83752	607.15588	825.74347	1265.36182	674.06268	973.85101	1522.61926	687.29285	970.54535	1357.59241	468.42871	1018.29492	1471.77405	467.71799	1017.69940	1232.30945	568.42163	665.99561	1268.52600	504.72934	471.98764	1274.89429	410.87662	299.90054	1317.31055	371.81879	79.96432	1370.11255	333.32614	56.41216	1298.18420	523.34595	34.19453	1614.64575	668.03821	673.96423	1588.66626	743.79730	479.48795	1614.91284	772.11102	297.65570	1600.69043	829.60712	108.85692	1549.97681	818.51154	41.30441	1607.60645	991.96674	103.83504	1446.57935	509.04028	1773.88489	-3360.29492	2845.19849	1034.18347			 
238	2.370	1351.82690	629.76788	1747.91589	1493.59229	644.40662	1727.87732	1346.98279	531.33044	1633.98340	1488.25818	534.38745	1608.46399	1403.65955	510.14310	1511.34094	1402.92908	455.74893	1238.22534	1398.49744	650.39044	1444.12878	1402.35376	699.08014	1269.01685	1457.32825	449.19672	1338.69299	1228.03528	599.57385	1494.39380	1134.68054	642.48291	1304.48779	1115.21680	695.15393	1171.92798	1118.48669	776.75793	1065.22693	1174.90527	881.75598	994.41821	1134.48657	851.90796	969.28644	1138.85327	905.69043	932.49182	1593.12146	579.59412	1468.91455	1667.60876	536.42828	1277.35022	1687.44519	544.72375	1132.19556	1710.88879	572.61273	1015.72693	1698.19226	625.64545	890.30304	1724.94043	575.66711	886.09711	1732.34778	613.68506	824.41992	1266.13184	681.26868	972.91394	1523.30212	696.25311	969.65643	1360.02332	476.26755	1017.33051	1474.18250	476.37109	1016.89923	1233.18591	574.12231	665.54102	1269.17297	509.56778	471.86292	1275.39490	413.81543	300.92078	1317.20654	372.36380	81.17854	1369.90613	333.65643	57.77689	1298.03296	523.43781	34.14891	1615.94153	677.76215	673.57599	1588.98145	752.81970	478.56909	1615.08337	780.94012	296.71283	1600.18774	838.07733	107.79990	1550.00793	826.59503	40.22102	1606.95984	1000.39783	102.48249	1448.53992	517.04163	1773.05017	-3360.27661	2845.17480	1034.25183			 
239	2.380	1354.01929	637.78973	1747.04431	1495.80957	652.52521	1726.87073	1349.08887	539.41943	1633.30078	1490.16870	542.49554	1607.51770	1405.57324	518.32336	1510.46863	1405.06665	464.00308	1237.29053	1400.13379	658.59546	1443.30603	1403.57117	707.32971	1268.19824	1459.27283	457.45047	1337.73401	1229.68140	607.47101	1493.76953	1136.79321	649.88361	1303.41919	1117.05286	701.05188	1170.31921	1120.46558	782.06268	1063.07324	1176.67334	886.76111	991.88110	1136.16211	856.41675	966.73572	1140.54700	910.15472	929.56610	1594.73450	587.93536	1467.65613	1669.24768	544.28601	1276.32056	1688.83948	552.33167	1131.03821	1712.43188	580.02100	1014.63788	1699.73486	632.63281	889.00494	1726.26001	582.52087	884.86993	1733.91187	620.29340	823.16589	1267.17908	688.53589	971.91522	1524.11401	705.39185	968.83191	1362.52380	484.27957	1016.32269	1476.66663	485.11713	1016.15167	1234.15393	579.95862	665.03601	1269.89038	514.56622	471.81018	1275.83533	416.87894	301.94791	1317.06226	372.82629	82.44411	1369.80359	334.21832	59.57199	1297.86597	523.45880	34.07680	1617.06262	687.92456	672.94727	1589.52271	762.21600	477.79407	1615.03040	789.09448	295.50607	1599.66760	844.81244	106.50389	1548.54431	832.50385	39.00046	1606.14148	1006.95129	99.74947	1451.04785	525.24561	1772.24475	-3360.38208	2845.17236	1034.19531			 
240	2.390	1356.42651	645.71088	1746.41162	1498.27710	660.79517	1725.92273	1351.05884	547.44641	1632.40845	1492.28784	550.46698	1606.37500	1407.80469	526.60931	1509.76440	1407.33606	472.45474	1236.32959	1401.75305	666.77496	1442.42493	1404.93958	715.65247	1267.42480	1461.27649	465.78845	1336.90576	1231.44543	615.35370	1493.14648	1138.75854	656.59790	1302.21899	1119.21997	706.70355	1168.74768	1122.50134	786.86597	1060.90100	1178.33191	891.39746	988.94824	1138.21716	860.91467	963.97015	1142.30310	914.06799	926.39343	1596.64685	596.51746	1466.54431	1670.80200	552.29999	1275.29639	1690.28955	560.06866	1129.93958	1713.83228	587.40680	1013.51740	1701.16345	639.67792	887.65344	1727.55225	589.53656	883.68054	1735.35535	627.20441	821.88214	1267.80078	696.11481	971.05420	1525.15955	714.70538	968.07092	1365.04834	492.37115	1015.13171	1479.24219	494.04843	1015.35565	1235.13110	586.10510	664.52441	1270.62732	519.76532	471.72849	1276.36121	420.07385	303.13177	1316.92322	373.45233	83.99736	1369.61279	334.54044	61.50370	1297.67834	523.53674	34.02143	1618.90674	698.88257	672.83197	1590.26697	771.55518	477.03482	1614.90942	796.63751	293.99554	1598.94446	849.74811	104.63364	1548.65454	837.57294	36.76063	1605.42249	1011.80328	96.13396	1453.31982	533.25598	1771.14392	-3360.33496	2845.27686	1033.90503			 
